<svg width="10" height="10" viewBox="0 0 10 10" fill="none" xmlns="http://www.w3.org/2000/svg">
<path fill-rule="evenodd" clip-rule="evenodd" d="M4.5 1.5C2.84315 1.5 1.5 2.84315 1.5 4.5C1.5 6.15685 2.84315 7.5 4.5 7.5C6.15685 7.5 7.5 6.15685 7.5 4.5C7.5 2.84315 6.15685 1.5 4.5 1.5ZM0.5 4.5C0.5 2.29086 2.29086 0.5 4.5 0.5C6.70914 0.5 8.5 2.29086 8.5 4.5C8.5 5.42436 8.18646 6.27548 7.65993 6.95282L9.35355 8.64645C9.54882 8.84171 9.54882 9.15829 9.35355 9.35355C9.15829 9.54882 8.84171 9.54882 8.64645 9.35355L6.95282 7.65993C6.27548 8.18646 5.42436 8.5 4.5 8.5C2.29086 8.5 0.5 6.70914 0.5 4.5Z" fill="#0F1729"/>
</svg>
